<?xml version="1.0" encoding="UTF-8" standalone="no"?>
<!-- Generator: Adobe Illustrator 19.0.0, SVG Export Plug-In . SVG Version: 6.00 Build 0)  -->

<svg
   version="1.1"
   id="Layer_1"
   x="0px"
   y="0px"
   viewBox="0 0 512 512"
   xml:space="preserve"
   width="512"
   height="512"
   xmlns="http://www.w3.org/2000/svg"
   xmlns:svg="http://www.w3.org/2000/svg"><defs
   id="defs45" />
<g
   id="g10"
   transform="matrix(1.1507315,0,0,1.1507315,23.117635,-102.10318)">
	<g
   id="g8">
		<g
   id="g6">
			
			<path
   d="m 405.163,392.917 -21.333,-128 C 382.977,259.776 378.539,256 373.313,256 H 320 c 0,-0.78683 -1.04324,-106.33208 -1.05684,-107.12948 -0.0865,-5.06575 -5.46808,-9.98546 -10.56924,-9.98546 -5.888,0 -10.71526,4.77919 -10.667,10.667 L 298.666,266.56 c 3.5e-4,0.043 -0.021,0.064 -0.021,0.107 0,0.043 0.021,0.064 0.021,0.107 V 320 h -192 V 128 h 179.69204 c 5.888,0 10.667,-4.779 10.667,-10.667 0,-5.888 -4.779,-10.667 -10.667,-10.667 H 96 c -5.888,0 -10.667,4.779 -10.667,10.667 V 256 H 32 c -5.205,0 -9.664,3.776 -10.517,8.917 l -21.333,128 c -0.043,0.277 0.064,0.533 0.043,0.789 C 0.171,394.048 0,394.325 0,394.667 V 501.334 C 0,507.221 4.779,512 10.667,512 h 384 c 5.888,0 10.667,-4.779 10.667,-10.667 V 394.667 c 0,-0.363 -0.171,-0.683 -0.213,-1.024 -0.022,-0.256 0.084,-0.491 0.042,-0.726 z M 41.024,277.333 H 85.333 V 320 H 74.667 C 68.779,320 64,324.779 64,330.667 c 0,5.888 4.779,10.667 10.667,10.667 h 256 c 5.888,0 10.667,-4.779 10.667,-10.667 0,-5.888 -4.779,-10.667 -10.667,-10.667 H 320 v -42.667 h 44.288 L 382.059,384 H 23.253 Z M 384,490.667 H 21.333 V 405.334 H 384 Z"
   id="path4" />
		<g
   id="g351"
   transform="matrix(0.12381717,0,0,0.12381717,138.30436,163.1016)"><g
     id="g296">
	<path
   d="m 502.29,788.199 h -47 c -33.1,0 -60,26.9 -60,60 v 64.9 c 0,33.1 26.9,60 60,60 h 47 c 33.101,0 60,-26.9 60,-60 v -64.9 c 0,-33.199 -26.899,-60 -60,-60 z"
   id="path292" />
	<path
   d="m 170.89,285.8 86.7,10.8 c 27.5,3.4 53.6,-12.4 63.5,-38.3 12.5,-32.7 29.9,-58.5 52.2,-77.3 31.601,-26.6 70.9,-40 117.9,-40 48.7,0 87.5,12.8 116.3,38.3 28.8,25.6 43.1,56.2 43.1,92.1 0,25.8 -8.1,49.4 -24.3,70.8 -10.5,13.6 -42.8,42.2 -96.7,85.9 -54,43.7 -89.899,83.099 -107.899,118.099 -18.4,35.801 -24.8,75.5 -26.4,115.301 -1.399,34.1 25.8,62.5 60,62.5 h 49 c 31.2,0 57,-23.9 59.8,-54.9 2,-22.299 5.7,-39.199 11.301,-50.699 9.399,-19.701 33.699,-45.701 72.699,-78.1 C 723.59,477.8 772.79,428.4 795.891,392 c 23,-36.3 34.6,-74.8 34.6,-115.5 0,-73.5 -31.3,-138 -94,-193.4 -62.6,-55.4 -147,-83.1 -253,-83.1 -100.8,0 -182.1,27.3 -244.1,82 -52.8,46.6 -84.9,101.8 -96.2,165.5 -3.501,18.6 9.199,36 27.699,38.3 z"
   id="path294" />
</g><g
     id="g298">
</g><g
     id="g300">
</g><g
     id="g302">
</g><g
     id="g304">
</g><g
     id="g306">
</g><g
     id="g308">
</g><g
     id="g310">
</g><g
     id="g312">
</g><g
     id="g314">
</g><g
     id="g316">
</g><g
     id="g318">
</g><g
     id="g320">
</g><g
     id="g322">
</g><g
     id="g324">
</g><g
     id="g326">
</g></g></g>
	</g>
</g>
<g
   id="g12"
   transform="translate(0,-106.666)">
</g>
<g
   id="g14"
   transform="translate(0,-106.666)">
</g>
<g
   id="g16"
   transform="translate(0,-106.666)">
</g>
<g
   id="g18"
   transform="translate(0,-106.666)">
</g>
<g
   id="g20"
   transform="translate(0,-106.666)">
</g>
<g
   id="g22"
   transform="translate(0,-106.666)">
</g>
<g
   id="g24"
   transform="translate(0,-106.666)">
</g>
<g
   id="g26"
   transform="translate(0,-106.666)">
</g>
<g
   id="g28"
   transform="translate(0,-106.666)">
</g>
<g
   id="g30"
   transform="translate(0,-106.666)">
</g>
<g
   id="g32"
   transform="translate(0,-106.666)">
</g>
<g
   id="g34"
   transform="translate(0,-106.666)">
</g>
<g
   id="g36"
   transform="translate(0,-106.666)">
</g>
<g
   id="g38"
   transform="translate(0,-106.666)">
</g>
<g
   id="g40"
   transform="translate(0,-106.666)">
</g>
</svg>
